<svg version="1.1" viewBox="0.0 0.0 500.0 500.0" fill="none" stroke="none" stroke-linecap="square" stroke-miterlimit="10" xmlns:xlink="http://www.w3.org/1999/xlink" xmlns="http://www.w3.org/2000/svg"><clipPath id="g1ef5a4ba157_0_5.0"><path d="m0 0l500.0 0l0 500.0l-500.0 0l0 -500.0z" clip-rule="nonzero"/></clipPath><g clip-path="url(#g1ef5a4ba157_0_5.0)"><path fill="#000000" fill-opacity="0.0" d="m0 0l500.0 0l0 500.0l-500.0 0z" fill-rule="evenodd"/><path fill="#f4f4f4" d="m87.32284 250.0l0 0c0 -89.84412 72.833046 -162.67715 162.67715 -162.67715l0 0c43.144653 0 84.52225 17.139153 115.03012 47.64704c30.507904 30.507874 47.647034 71.88545 47.647034 115.03012l0 0c0 89.84412 -72.83304 162.67715 -162.67715 162.67715l0 0c-89.84412 0 -162.67715 -72.83304 -162.67715 -162.67715z" fill-rule="evenodd"/><path fill="#000000" fill-opacity="0.0" d="m83.13386 112.7874l333.7323 0l0 274.42517l-333.7323 0z" fill-rule="evenodd"/><path fill="#ef233c" d="m296.7656 158.40001l43.921875 0q4.703125 0 8.078125 3.390625q3.390625 3.375 3.390625 8.09375l0 155.03127q0 4.71875 -3.390625 8.109375q-3.375 3.375 -8.078125 3.375l-43.453125 0q-4.71875 0 -8.09375 -3.390625q-3.375 -3.390625 -3.375 -8.09375l0 -53.484375l-8.0625 15.90625q-2.140625 4.265625 -6.265625 6.515625q-4.125 2.234375 -8.28125 2.234375l-16.312485 0q-5.859375 0 -9.671875 -3.109375q-3.796875 -3.125 -4.9375 -5.765625l-8.0 -15.78125l0 53.484375q0 4.703125 -3.375 8.09375q-3.375 3.390625 -8.09375 3.390625l-43.453125 0q-4.703125 0 -8.09375 -3.375q-3.375 -3.390625 -3.375 -8.109375l0 -155.03127q0 -4.71875 3.375 -8.09375q3.390625 -3.390625 8.09375 -3.390625l43.921875 0q9.65625 0 14.703125 9.078125l27.0625 49.5625l27.062485 -49.5625q5.046875 -9.078125 14.703125 -9.078125z" fill-rule="nonzero"/></g></svg>